<?xml version="1.0" encoding="UTF-8" standalone="no"?>
<svg width="800" height="400" viewBox="0 0 800 400" fill="none" xmlns="http://www.w3.org/2000/svg">
  <!-- Dark Background -->
  <rect width="800" height="400" rx="8" fill="#1A1B26"/>
  
  <!-- Dashboard Header -->
  <rect x="20" y="20" width="760" height="60" rx="4" fill="#24283B"/>
  <circle cx="50" cy="50" r="15" fill="#7582ED"/>
  <rect x="80" y="40" width="120" height="20" rx="4" fill="#3D59A1"/>
  <rect x="600" y="40" width="80" height="20" rx="4" fill="#3D59A1"/>
  <rect x="700" y="40" width="60" height="20" rx="4" fill="#7582ED"/>

  <!-- Main Dashboard -->
  <rect x="20" y="100" width="220" height="280" rx="4" fill="#24283B"/>
  <rect x="40" y="120" width="180" height="30" rx="4" fill="#3D59A1" fill-opacity="0.6"/>
  <rect x="40" y="160" width="180" height="30" rx="4" fill="#3D59A1" fill-opacity="0.6"/>
  <rect x="40" y="200" width="180" height="30" rx="4" fill="#3D59A1" fill-opacity="0.6"/>
  <rect x="40" y="240" width="180" height="30" rx="4" fill="#3D59A1" fill-opacity="0.6"/>
  <rect x="40" y="280" width="180" height="30" rx="4" fill="#3D59A1" fill-opacity="0.6"/>
  <rect x="40" y="320" width="180" height="30" rx="4" fill="#7582ED"/>

  <!-- Dashboard Content -->
  <rect x="260" y="100" width="520" height="140" rx="4" fill="#24283B"/>
  <rect x="280" y="120" width="150" height="100" rx="4" fill="#3D59A1" fill-opacity="0.4"/>
  <rect x="445" y="120" width="150" height="100" rx="4" fill="#3D59A1" fill-opacity="0.4"/>
  <rect x="610" y="120" width="150" height="100" rx="4" fill="#3D59A1" fill-opacity="0.4"/>
  
  <!-- Chart Area -->
  <rect x="260" y="260" width="520" height="120" rx="4" fill="#24283B"/>
  <path d="M280 340 Q330 300, 370 330 Q410 360, 450 300 Q490 240, 530 280 Q570 320, 610 260 Q650 200, 690 250 Q730 300, 760 280" stroke="#7582ED" stroke-width="3" fill="none"/>
  
  <!-- Dashboard Stats -->
  <rect x="290" y="140" width="60" height="20" rx="2" fill="#7582ED"/>
  <rect x="290" y="170" width="100" height="10" rx="2" fill="#3D59A1"/>
  
  <rect x="455" y="140" width="60" height="20" rx="2" fill="#7582ED"/>
  <rect x="455" y="170" width="100" height="10" rx="2" fill="#3D59A1"/>
  
  <rect x="620" y="140" width="60" height="20" rx="2" fill="#7582ED"/>
  <rect x="620" y="170" width="100" height="10" rx="2" fill="#3D59A1"/>
</svg>