<?xml version="1.0" encoding="UTF-8"?>
<svg xmlns="http://www.w3.org/2000/svg" viewBox="0 0 404 420" fill="none">
  <path d="M399.641 59.525L215.643 5.91744L198.574 39.197L127.619 34.5298L0 162.899L24.485 246.052L12.689 258.043L35.54 282.301L23.193 294.463L46.03 324.33L29.317 338.21L60.8719 395.888L147.611 363.632C147.611 363.632 349.836 300.033 352.067 298.698C354.299 297.364 354.299 295.695 353.734 293.801C353.17 291.907 215.643 227.748 215.643 227.748L337.986 164.144L304.599 73.5364L399.641 59.525Z" fill="#E17726" stroke="#E17726" stroke-width="5.94955" stroke-linecap="round" stroke-linejoin="round"/>
  <path d="M2.2251 162.899L125.139 270.756L114.331 162.638L2.2251 162.899Z" fill="#E27625" stroke="#E27625" stroke-width="5.94955" stroke-linecap="round" stroke-linejoin="round"/>
  <path d="M347.591 163.242L385.777 219.141L316.777 270.108L347.591 163.242Z" fill="#E27625" stroke="#E27625" stroke-width="5.94955" stroke-linecap="round" stroke-linejoin="round"/>
  <path d="M112.651 162.638L125.698 270.756L180.089 336.973L193.761 268.454L112.651 162.638Z" fill="#E27625" stroke="#E27625" stroke-width="5.94955" stroke-linecap="round" stroke-linejoin="round"/>
  <path d="M312.353 162.638L230.96 268.454L244.069 336.973L298.721 270.756L312.353 162.638Z" fill="#E27625" stroke="#E27625" stroke-width="5.94955" stroke-linecap="round" stroke-linejoin="round"/>
</svg>
